<svg width="32" height="32" viewBox="0 0 32 32" fill="none" xmlns="http://www.w3.org/2000/svg">
<mask id="mask0_56_640" style="mask-type:alpha" maskUnits="userSpaceOnUse" x="0" y="0" width="32" height="32">
<rect width="32" height="32" fill="black"/>
</mask>
<g mask="url(#mask0_56_640)">
<path fill-rule="evenodd" clip-rule="evenodd" d="M8.75 5.5H23.25C25.0449 5.5 26.5 6.95507 26.5 8.75C26.5 10.5449 25.0449 12 23.25 12H8.75C6.95507 12 5.5 10.5449 5.5 8.75C5.5 6.95507 6.95507 5.5 8.75 5.5ZM3 8.75C3 5.57436 5.57436 3 8.75 3H23.25C26.4256 3 29 5.57436 29 8.75C29 11.9256 26.4256 14.5 23.25 14.5H8.75C5.57436 14.5 3 11.9256 3 8.75ZM8.75 20H23.25C25.0449 20 26.5 21.4551 26.5 23.25C26.5 25.0449 25.0449 26.5 23.25 26.5H8.75C6.95507 26.5 5.5 25.0449 5.5 23.25C5.5 21.4551 6.95507 20 8.75 20ZM3 23.25C3 20.0744 5.57436 17.5 8.75 17.5H23.25C26.4256 17.5 29 20.0744 29 23.25C29 26.4256 26.4256 29 23.25 29H8.75C5.57436 29 3 26.4256 3 23.25Z" fill="white"/>
</g>
</svg>
