<svg width="11" height="10" viewBox="0 0 11 10" fill="none" xmlns="http://www.w3.org/2000/svg">
<path d="M2.52461 2.29653C2.71231 2.23359 2.8771 2.11637 2.99811 1.9597L4.2125 0.3875C4.3125 0.254167 4.43125 0.15625 4.56875 0.09375C4.70625 0.03125 4.85 0 5 0C5.15 0 5.29375 0.03125 5.43125 0.09375C5.56875 0.15625 5.6875 0.254167 5.7875 0.3875L7.00189 1.9597C7.1229 2.11637 7.28769 2.23359 7.47539 2.29653L9.3125 2.9125C9.52917 2.97917 9.7 3.10208 9.825 3.28125C9.95 3.46042 10.0125 3.65833 10.0125 3.875C10.0125 3.975 9.99792 4.075 9.96875 4.175C9.93958 4.275 9.89167 4.37083 9.825 4.4625L8.64051 6.14233C8.51679 6.31777 8.45283 6.52837 8.45806 6.74298L8.5 8.4625C8.50833 8.75417 8.4125 9 8.2125 9.2C8.0125 9.4 7.77917 9.5 7.5125 9.5C7.49583 9.5 7.40417 9.4875 7.2375 9.4625L5.26903 8.91265C5.09305 8.86349 4.90695 8.86349 4.73097 8.91265L2.7625 9.4625C2.72083 9.47917 2.675 9.48958 2.625 9.49375C2.575 9.49792 2.52917 9.5 2.4875 9.5C2.22083 9.5 1.9875 9.4 1.7875 9.2C1.5875 9 1.49167 8.75417 1.5 8.4625L1.54201 6.7297C1.5472 6.51557 1.4835 6.30544 1.36029 6.13023L0.1875 4.4625C0.120833 4.37083 0.0729167 4.275 0.04375 4.175C0.0145833 4.075 0 3.975 0 3.875C0 3.66667 0.0604167 3.47292 0.18125 3.29375C0.302083 3.11458 0.470833 2.9875 0.6875 2.9125L2.52461 2.29653ZM3.61273 2.81666C3.49044 2.97681 3.32261 3.09628 3.13125 3.15941L1.25414 3.77866C1.12725 3.82052 1.0763 3.97265 1.15239 4.08248L2.36546 5.83361C2.48542 6.00677 2.54763 6.21339 2.54321 6.424L2.50562 8.21936C2.50281 8.35312 2.6296 8.45186 2.7586 8.41638L4.73243 7.87358C4.9075 7.82544 5.09238 7.82587 5.26722 7.87482L7.2405 8.42734C7.36971 8.46352 7.49718 8.36473 7.49439 8.23058L7.45681 6.42685C7.45239 6.21448 7.5157 6.00622 7.63758 5.83225L8.84709 4.10576C8.92357 3.9966 8.87388 3.84459 8.7477 3.80167L6.86304 3.16049C6.67526 3.09661 6.51073 2.97833 6.39035 2.82069L5.15895 1.20815C5.07891 1.10333 4.92109 1.10333 4.84105 1.20815L3.61273 2.81666Z" fill="#1A1A1A"/>
</svg>
